<?xml version="1.0" standalone="no"?>
<!DOCTYPE svg PUBLIC "-//W3C//DTD SVG 20010904//EN"
 "http://www.w3.org/TR/2001/REC-SVG-20010904/DTD/svg10.dtd">
<svg version="1.0" xmlns="http://www.w3.org/2000/svg"
 width="900.000000pt" height="225.000000pt" viewBox="0 0 900.000000 225.000000"
 preserveAspectRatio="xMidYMid meet">
<metadata>
Created by potrace 1.10, written by Peter Selinger 2001-2011
</metadata>
<g transform="translate(0.000000,225.000000) scale(0.100000,-0.100000)"
fill="#000000" stroke="none">
<path d="M582 1547 c-223 -223 -362 -369 -362 -381 0 -11 15 -33 34 -50 51
-47 51 -58 -1 -104 -34 -31 -43 -45 -36 -57 19 -33 718 -725 733 -725 15 0
731 708 738 730 2 6 -17 30 -42 52 -25 23 -46 46 -46 51 0 5 18 26 39 46 22
21 41 45 43 54 2 10 -130 149 -362 382 -200 201 -367 365 -370 365 -3 0 -168
-163 -368 -363z m703 -37 c182 -181 331 -334 333 -340 5 -13 -651 -670 -668
-670 -14 0 -670 652 -670 666 0 9 661 674 670 674 3 0 154 -148 335 -330z
m-644 -785 c162 -162 301 -295 308 -295 7 0 148 135 313 301 323 325 303 311
350 254 17 -20 10 -28 -320 -357 -185 -186 -339 -338 -342 -338 -4 0 -657 649
-678 674 -5 7 60 67 67 61 3 -3 139 -138 302 -300z"/>
<path d="M678 1426 c-137 -138 -248 -256 -248 -261 0 -5 114 -123 252 -262
176 -177 259 -253 273 -252 22 2 515 497 515 517 0 6 -112 124 -249 262 -193
193 -255 250 -273 248 -16 -1 -99 -78 -270 -252z m503 -25 c120 -121 219 -225
219 -233 0 -13 -437 -458 -450 -458 -11 0 -450 444 -450 455 0 16 432 452 448
454 8 0 113 -98 233 -218z"/>
<path d="M793 1326 c-79 -79 -143 -150 -143 -159 0 -15 284 -307 299 -307 13
0 296 290 299 307 5 19 -275 303 -298 303 -8 0 -79 -65 -157 -144z m284 -38
c62 -62 113 -116 113 -120 0 -12 -229 -238 -241 -238 -13 0 -239 223 -239 235
0 15 224 235 240 235 8 0 65 -51 127 -112z"/>
<path d="M895 1210 c-41 -42 -41 -43 10 -96 37 -38 53 -37 96 8 21 23 39 44
39 47 -1 15 -72 81 -88 81 -10 0 -35 -18 -57 -40z m79 -29 c9 -14 -4 -41 -19
-41 -17 0 -38 27 -30 40 8 12 42 13 49 1z"/>
<path d="M2419 1577 c-39 -19 -109 -91 -109 -112 0 -6 -9 -29 -20 -50 -12 -22
-29 -65 -40 -95 -10 -30 -28 -80 -40 -110 -73 -184 -90 -233 -115 -337 l-17
-71 24 -32 c50 -69 155 -91 219 -46 19 13 56 44 83 70 45 42 53 46 99 46 48 0
53 -2 116 -65 119 -116 141 -140 141 -151 0 -6 19 -31 43 -56 35 -37 50 -46
91 -51 63 -9 114 5 167 46 45 34 97 117 98 155 1 28 12 28 100 -4 64 -23 82
-25 149 -19 43 3 118 7 167 8 92 2 116 10 166 52 l27 22 78 -38 c44 -22 93
-42 111 -45 17 -3 103 -2 190 3 134 8 166 13 205 33 l46 22 65 -32 c63 -31 70
-32 144 -25 43 3 116 6 163 6 61 -1 104 5 153 21 60 19 72 20 100 9 56 -23
114 -34 141 -27 44 11 105 80 112 126 4 22 10 42 14 45 15 9 82 -35 109 -72
47 -64 72 -81 138 -93 71 -12 101 -7 160 26 45 26 48 25 136 -23 40 -21 145
-35 170 -21 11 5 69 10 130 10 126 0 143 4 190 50 29 28 35 41 37 83 7 114 1
362 -9 388 -6 16 -11 39 -11 53 0 27 14 30 73 13 65 -18 71 -36 71 -243 1
-213 15 -273 75 -313 38 -26 135 -32 174 -11 23 12 77 68 77 81 0 4 4 7 10 7
5 0 9 -5 7 -12 -1 -6 8 -17 21 -23 12 -7 33 -21 45 -32 42 -39 130 -56 242
-47 55 4 117 7 138 5 49 -4 137 17 160 38 23 19 57 16 100 -9 83 -49 291 -48
390 1 61 31 91 36 103 18 12 -21 79 -41 128 -40 40 1 57 7 94 36 25 19 49 35
54 35 4 0 33 -17 64 -37 49 -32 63 -37 117 -37 85 0 157 42 157 89 0 36 -35
127 -68 175 -38 56 -66 126 -58 142 3 7 20 36 36 63 51 85 63 113 57 129 -9
23 -27 20 -27 -4 0 -11 -4 -20 -8 -20 -5 0 -18 -8 -30 -17 -11 -10 -52 -45
-91 -78 -39 -33 -71 -64 -71 -71 0 -6 23 -41 50 -77 28 -36 50 -69 50 -72 0
-7 93 -133 115 -156 8 -9 15 -23 15 -33 0 -15 -9 -16 -92 -10 -101 7 -112 12
-133 58 -8 17 -28 54 -44 81 -31 50 -37 63 -46 90 -7 24 -40 17 -63 -14 -19
-26 -20 -35 -12 -112 7 -65 6 -86 -4 -94 -7 -5 -45 -9 -84 -7 l-71 4 0 360
c-1 198 -3 364 -6 368 -11 17 24 26 90 24 39 -1 73 -2 78 -3 4 -1 5 -25 2 -53
-2 -29 -7 -117 -10 -195 -6 -162 0 -173 55 -103 17 21 54 64 82 95 l51 55 68
0 c49 0 72 4 84 16 9 9 13 20 8 24 -19 18 -102 26 -171 17 -40 -5 -74 -8 -77
-5 -2 2 -11 35 -19 72 -16 78 -46 116 -106 136 -108 36 -199 -46 -200 -181 0
-20 -2 -38 -5 -41 -6 -5 -127 16 -142 25 -23 14 -140 25 -178 17 -101 -22
-131 -33 -169 -60 -22 -17 -45 -30 -52 -30 -7 0 -35 16 -64 35 -29 19 -70 38
-91 41 -22 4 -42 11 -45 15 -3 5 -45 9 -94 9 l-88 0 -30 64 c-23 48 -41 72
-72 93 l-43 27 -261 1 c-282 0 -292 -2 -343 -57 -18 -19 -24 -41 -29 -102 -5
-54 -10 -74 -18 -66 -5 5 -27 10 -48 10 -22 0 -51 6 -66 14 -62 31 -235 9
-323 -42 -39 -22 -57 -10 -64 45 -12 84 -35 133 -79 165 -37 27 -47 29 -99 26
-49 -4 -62 -9 -92 -38 -21 -20 -41 -53 -49 -79 -20 -71 -37 -74 -91 -16 -25
27 -45 53 -45 56 0 17 -79 64 -126 75 -70 16 -121 3 -165 -42 -25 -26 -36 -50
-49 -111 -19 -91 -23 -92 -125 -52 -46 17 -82 23 -155 24 -52 1 -100 -3 -107
-8 -12 -8 -116 -36 -140 -37 -12 0 -43 92 -43 127 0 10 -17 36 -39 57 -40 39
-94 55 -145 42 -30 -7 -96 -63 -96 -80 0 -7 -9 -21 -20 -31 -11 -10 -20 -24
-20 -31 0 -19 -18 -27 -80 -35 -33 -5 -87 -25 -138 -50 l-82 -43 -28 21 c-56
42 -94 55 -139 50 -48 -5 -107 -44 -132 -88 -19 -35 -36 -37 -52 -6 -12 24
-38 48 -84 78 -32 20 -129 27 -140 9 -10 -16 -52 -12 -59 6 -3 9 -6 41 -6 71
0 51 -3 59 -36 89 -68 65 -146 61 -221 -12 -49 -46 -48 -41 -21 -155 10 -42 9
-50 -18 -97 -16 -29 -33 -50 -39 -49 -16 6 -62 105 -68 148 -7 51 -91 168
-137 191 -56 26 -134 29 -181 5z m112 -57 c65 0 69 -1 69 -23 0 -12 6 -31 14
-42 7 -11 16 -31 19 -45 3 -14 15 -50 27 -80 12 -30 25 -66 30 -80 11 -30 32
-86 60 -160 12 -30 25 -70 30 -88 4 -18 12 -38 18 -45 5 -7 12 -21 15 -32 3
-11 15 -45 26 -75 31 -82 32 -80 -63 -80 l-83 0 -17 43 c-9 23 -16 54 -16 68
0 13 -6 33 -14 44 -12 18 -25 20 -146 20 l-133 -1 -18 -44 c-10 -25 -18 -56
-19 -70 -1 -46 -19 -57 -102 -62 -103 -7 -108 -2 -75 62 15 29 27 58 27 65 0
7 8 28 17 47 9 18 22 45 30 60 7 14 13 35 13 45 0 11 7 28 15 39 8 10 15 28
15 39 0 11 7 29 15 39 8 11 15 29 15 40 0 12 7 30 15 40 8 11 15 29 15 40 0
12 7 30 15 40 8 11 15 29 15 40 0 12 7 30 15 40 8 11 15 29 15 40 0 33 38 89
56 82 9 -3 47 -6 85 -6z m544 -2 c9 -5 10 -42 5 -121 0 -4 -35 -7 -77 -5 l-78
3 -3 54 c-2 29 -1 59 1 66 5 12 133 15 152 3z m1263 -4 c4 -5 6 -175 4 -377
l-2 -368 -73 3 c-70 3 -72 4 -75 31 -4 34 -10 34 -45 -3 -34 -34 -85 -45 -162
-35 -60 7 -118 49 -163 119 -25 38 -26 48 -26 161 0 115 1 122 28 164 42 65
81 96 146 116 55 17 60 17 106 0 27 -10 61 -32 75 -48 19 -20 29 -26 34 -17 4
7 4 65 0 131 -4 65 -4 122 -2 126 7 11 146 9 155 -3z m822 6 l55 0 65 -106
c36 -59 73 -118 82 -133 10 -14 22 -35 28 -46 6 -11 19 -33 30 -50 10 -16 30
-53 44 -81 30 -60 52 -82 68 -66 7 7 7 20 -1 44 -7 18 -15 124 -18 236 -5 170
-4 202 8 203 23 1 133 1 149 0 13 -1 15 -49 13 -373 l-2 -373 -82 -3 c-65 -2
-85 0 -100 14 -11 9 -19 21 -19 27 0 10 -69 128 -80 137 -4 3 -10 12 -13 20
-4 8 -16 29 -27 45 -11 17 -24 39 -30 50 -6 11 -20 36 -31 55 -37 61 -59 104
-59 116 0 13 -25 26 -33 18 -2 -3 -2 -113 1 -245 l5 -240 -82 3 -82 3 -2 373
c-1 240 2 374 8 376 6 3 19 3 30 1 11 -3 45 -5 75 -5z m1798 -4 c4 -2 5 -35 2
-73 l-5 -68 -107 2 c-76 1 -108 -2 -108 -10 0 -7 0 -143 0 -303 0 -159 -1
-292 -4 -295 -2 -2 -43 -3 -91 -1 l-87 4 3 301 4 302 -110 0 -110 0 -3 64 c-2
35 -1 69 1 75 3 8 93 10 306 9 166 -1 305 -4 309 -7z m-2180 -193 c49 -11 83
-26 105 -46 l32 -28 6 -202 c3 -128 10 -214 19 -235 7 -19 9 -37 4 -41 -5 -4
-42 -6 -81 -3 -62 4 -73 7 -73 23 0 21 -22 38 -28 21 -2 -7 -9 -12 -15 -12 -6
0 -19 -8 -29 -17 -30 -27 -193 -25 -229 1 -53 41 -64 66 -64 145 0 73 0 73 39
107 22 19 46 34 55 34 9 0 34 7 56 15 22 8 66 14 97 15 45 0 63 5 85 24 l28
24 -18 36 c-17 36 -17 36 -82 36 -64 0 -65 0 -91 -40 l-27 -40 -68 0 c-66 0
-69 1 -69 24 0 52 81 145 127 147 10 0 34 7 53 14 48 18 83 18 168 -2z m1367
-1 c136 -39 142 -53 146 -337 3 -203 2 -220 -14 -219 -9 0 -42 1 -72 2 -50 2
-57 5 -65 28 l-10 26 -34 -26 c-39 -29 -118 -43 -189 -32 -35 5 -55 17 -86 48
-40 40 -41 42 -41 112 0 67 2 74 31 104 36 37 113 62 216 71 101 9 133 41 97
96 -15 22 -23 25 -80 25 -63 0 -65 -1 -85 -35 -23 -39 -32 -42 -112 -45 -69
-1 -78 11 -48 67 38 71 58 87 151 114 72 22 122 22 195 1z m1120 -2 c120 -30
133 -64 136 -345 l3 -210 -70 4 c-80 4 -84 5 -84 32 0 25 -6 24 -45 -5 -38
-29 -105 -41 -180 -31 -45 5 -60 13 -93 45 -28 28 -41 51 -44 78 -8 58 4 109
34 141 34 36 144 71 221 71 40 0 61 6 81 21 30 24 32 40 10 74 -15 22 -23 25
-80 25 -63 0 -65 -1 -85 -35 -19 -31 -54 -54 -65 -42 -3 3 -21 1 -41 -4 -39
-8 -73 3 -73 25 0 32 57 116 78 116 4 0 14 6 20 12 22 22 124 47 177 43 28 -1
72 -8 100 -15z m555 0 c63 -18 107 -54 132 -107 27 -57 16 -66 -67 -57 -50 5
-64 11 -85 36 -24 28 -29 29 -90 26 -63 -3 -65 -4 -68 -32 -2 -16 1 -33 7 -39
12 -12 84 -34 141 -43 55 -9 112 -35 148 -68 30 -28 32 -34 32 -95 0 -60 -3
-69 -33 -101 -61 -68 -79 -74 -207 -75 -107 0 -118 2 -155 26 -50 33 -78 65
-95 106 -20 53 -9 64 57 59 32 -3 63 -5 69 -5 6 -1 17 -14 23 -29 24 -57 104
-79 162 -45 25 15 29 23 27 53 -3 32 -7 36 -63 56 -33 12 -77 23 -97 23 -20 1
-39 5 -42 10 -3 5 -18 12 -33 16 -16 3 -43 20 -60 38 -30 28 -33 36 -33 92 0
56 3 64 38 102 60 65 174 86 292 53z m-4742 -310 c2 -267 0 -310 -14 -342 -24
-54 -70 -77 -157 -80 l-72 -3 -3 63 c-3 64 -2 66 44 63 11 -1 28 7 39 19 17
19 18 36 12 298 -4 153 -4 281 -1 284 3 3 37 5 77 4 l72 -1 3 -305z m274 115
c-2 -177 -1 -192 18 -213 15 -18 30 -24 62 -24 106 -2 119 26 118 248 -1 90 1
168 5 173 3 6 39 11 79 11 l73 0 0 -275 0 -275 -73 0 -74 0 0 28 c0 43 -9 44
-46 8 -40 -39 -88 -50 -167 -40 -63 8 -92 26 -122 74 -22 36 -23 46 -25 251
-1 118 -1 218 -1 222 1 4 36 7 78 5 l77 -3 -2 -190z"/>
<path d="M2486 1323 c-3 -3 -6 -16 -6 -27 0 -25 -25 -103 -53 -163 -10 -24
-17 -48 -15 -55 6 -18 178 -19 185 -1 3 7 -1 20 -8 29 -16 19 -37 74 -49 124
-15 70 -38 109 -54 93z"/>
<path d="M4010 1203 c-42 -29 -58 -56 -65 -105 -22 -153 50 -244 164 -210 104
32 110 258 7 313 -44 24 -74 24 -106 2z"/>
<path d="M4725 1020 c-3 -5 -25 -10 -48 -10 -39 0 -82 -19 -99 -44 -15 -21 -8
-66 14 -86 27 -25 82 -26 127 -2 26 14 37 29 47 63 21 68 18 89 -10 89 -14 0
-28 -4 -31 -10z"/>
<path d="M6096 1025 c-11 -8 -38 -15 -59 -15 -23 0 -54 -9 -73 -21 -29 -18
-34 -26 -34 -59 0 -29 6 -41 25 -54 78 -51 193 26 183 124 -4 39 -15 45 -42
25z"/>
<path d="M7206 1025 c-11 -8 -38 -15 -59 -15 -23 0 -54 -9 -73 -21 -29 -18
-34 -26 -34 -59 0 -29 6 -41 25 -54 75 -49 191 29 183 123 -3 40 -15 46 -42
26z"/>
</g>
</svg>
